<svg version="1.2" xmlns="http://www.w3.org/2000/svg" viewBox="0 0 581 341" width="581" height="341">
	<style>
		.s0 { fill: #feffff } 
		.s1 { fill: #1b2163 } 
		.s2 { fill: #202b74 } 
		.s3 { fill: #243484 } 
		.s4 { fill: #61254b } 
		.s5 { fill: #3c3a97 } 
		.s6 { fill: #a02c2d } 
		.s7 { fill: #2a64b0 } 
		.s8 { fill: #5a4cb2 } 
		.s9 { fill: #bb392e } 
		.s10 { fill: #d44b2f } 
		.s11 { fill: #2e82cb } 
		.s12 { fill: #3193d9 } 
		.s13 { fill: #ec652f } 
		.s14 { fill: #e58064 } 
		.s15 { fill: #ceccdd } 
		.s16 { fill: #eff7ed } 
	</style>
	<g id="Background">
		<path id="Path 0" class="s0" d="m-219 686v-1024h1024v1024z"/>
		<path id="Path 1" class="s1" d="m124 100l18-5 25 2 14 6 10 10-5 9-29 1-18 10-10 11-6-6h-15l-3 4h-16l-4-3 5-12 10-12zm116 99l20-22 32 35-14 13-5-7h-11l-13-7-9-8z"/>
		<path id="Path 2" class="s2" d="m85 139l4 3h16l3-4h15l6 6-8 17-1 26 7 19 7 9-3 3h-15l-7-4-26 2-7-24v-25zm380 47v-18l-10-22 12 6 14 14 8 20zm-280 45l24-8 31-24v4l9 8 13 7h11l5 7-17 18-12 8-6-5h-53l-5-5z"/>
		<path id="Path 3" class="s3" d="m186 122l5-9 6 5 4 10-2 7-4-7zm181 62v5l-6-3-9-13v-9l8-3 13 1 5 4-3 13h-7zm9 2l7-12 11 2v5l6 2-1 2-9 3zm79 24l10-24h24l2 8 2 18-2 13-14 27-8 7-4-4v-14l4-4-1-12-4-8zm-372 6l26-2 7 4h15l3-3 11 9 17 7h23v10l5 5h53l6 5-21 15-23 9-23 4-28-2-19-6-27-17-17-20z"/>
		<path id="Path 4" class="s4" d="m402 79l3-23 7 9 2 12v13l-23 20-2-8 6-5z"/>
		<path id="Path 5" class="s5" d="m375 118l4-4h13l5 6 37 20 6 8 2 11-14-6-16 2-14 11-4 10-11-2 8-17-13 9-5-4-13-1 10-17v-9z"/>
		<path id="Path 6" class="s6" d="m293 142l7-6h6l4 5h9l10 6 7 16-11 13z"/>
		<path id="Path 7" class="s7" d="m167 97l1-7h8l22 6 3 6v12l-4 4-6-5-10-10zm-67 18l11-13 10-6 3 4zm299 116l16 1 14-3 15-8 11-11 9 7 4 8 1 12-4 4v14l4 4-30 16-37 4-39-10-33-23 4-8 63 3z"/>
		<path id="Path 8" class="s8" d="m423 80l11-11 10-24 2 28-3 9-8 16-10 10v6l4 4 10 4h13l5-4h2l-6 12-18 6v3l-1 1-37-20-5-6h-13l4-12 4-8 2 8 2 8 23-20zm-224 55l2-7h8l3 5-3 26-6 9 2-6-2-16-3-8z"/>
		<path id="Path 9" class="s9" d="m457 118l-5 4h-13l-10-4-4-4v-6l10-10 8 2 4 7 10 6zm-135-3l3 3h16l8-4h13l13 4-5 17-17 11-17 17-7-16-10-6h-9l-4-5h-6zm155 137l14-27 2-13-2-18h17l-9 31-12 18z"/>
		<path id="Path 10" class="s10" d="m322 115l25-18 5 5h31l-4 12-4 4-13-4h-13l-8 4h-16zm113 24v-3l18-6 6-12h9l22 24 11-1 8 25-1 28h-17l-2-8-8-20-14-14-12-6zm-243 8l3 5h5l3-6 2 16-2 6 6-9 7-1 3-9 3 4v12l-4 10-5 7-10 6-4-2-4-9h-7l-1-29 1-1z"/>
		<path id="Path 11" class="s11" d="m197 118l4-4v-12h14l7 4 31 34 9 14 40 34 25 14h14l3-4 29 23 26 10-2 10-63-3-4 8-38-34-32-35-15-19-14-12-19-13-3-5h-8z"/>
		<path id="Path 12" class="s12" d="m121 96l14-9 24-7 28-1 18 3 18 6 28 16 42 38 32 34 19 22-3 4h-14l-25-14-40-34-9-14-31-34-7-4h-14l-3-6-22-6h-8l-1 7-25-2-18 5z"/>
		<path id="Path 13" class="s13" d="m347 97l26-13 29-5-7 18-6 5-2-8-4 8h-31zm96-15l20-1 16 4-16 9 18 6 25 22 6 13-17-9 6 15-11 1-22-24h-9-2v-5l-10-6-4-7-8-2zm-240 106l-15 7h-16l13-10 3-8h7l4 9z"/>
		<path id="Path 14" class="s14" d="m414 90v-13l9 3zm-226 57l4-5v5z"/>
		<path id="Path 15" class="s15" d="m378 166l13-9-8 17-7 12-9-2 1-5h7z"/>
		<path id="Path 16" class="s16" d="m209 159l3-26 19 13-9 7-3-4-3 9zm-17-17l8-4 3 8-3 6h-5l-3-5z"/>
		<path id="Path 17" class="s0" d="m129 144l10-11 18-10 29-1 9 6 4 7 1 3-8 4-4 5-1 1 1 29-3 8-13 10h16l15-7 10-6 5-7 4-10v-12l9-7 14 12 15 19-20 22-31 24-24 8h-23l-17-7-11-9-7-9-7-19 1-26zm207 19l17-17 17-11v9l-10 17-8 3v9l9 13 6 3v-5l9 2 14 2 9-3 1-2-6-2v-5l4-10 14-11 16-2 14 6-2-11-6-8 1-1 20 7 10 22v18l-10 24-11 11-15 8-14 3-16-1-26-10-29-23-19-22z"/>
		<path id="Path 18" class="s14" d="m187 147h1v1h-1z"/>
		<path id="Path 19" class="s16" d="m392 126l1 9-10 6 2-9z"/>
	</g>
</svg>